<?xml version="1.0" standalone="yes"?>
<svg xmlns="http://www.w3.org/2000/svg" width="629" height="629">
<path style="fill:none; stroke:none;" d="M0 0L0 629L629 629L629 0L0 0z"/>
<path style="fill:#c7701e; stroke:none;" d="M314 1C306.198 29.5267 290.875 57.7123 279.424 85C257.634 136.927 236.366 189.073 214.576 241C203.89 266.465 187.692 294.11 181.529 321C179.193 331.195 181 343.561 181 354L181 419L181 628L214 601.271L282 542.579L307 521.05L318 513.345L328 520.83L351 541.714L419 603.286L448 628L448 412L448 342L447.671 307L432.306 270L404.281 205L316 1L314 1z"/>
</svg>
